<svg width="24" height="24" viewBox="0 0 16 16" fill="none" xmlns="http://www.w3.org/2000/svg">
<path d="M5.50625 12.4375C5.50625 12.5 5.44375 12.5312 5.35 12.5312C5.25625 12.5625 5.19375 12.5 5.19375 12.4375C5.19375 12.375 5.25625 12.3125 5.35 12.3125C5.44375 12.3125 5.50625 12.375 5.50625 12.4375ZM4.5375 12.2812C4.56875 12.2188 4.6625 12.1875 4.75625 12.2188C4.85 12.25 4.88125 12.3125 4.88125 12.375C4.85 12.4375 4.75625 12.4688 4.69375 12.4375C4.6 12.4375 4.5375 12.3438 4.5375 12.2812ZM5.94375 12.25C6.00625 12.2188 6.1 12.2812 6.1 12.3438C6.13125 12.4062 6.06875 12.4375 5.975 12.4688C5.88125 12.5 5.7875 12.4688 5.7875 12.4062C5.7875 12.3125 5.85 12.25 5.94375 12.25ZM7.975 0.25C12.3187 0.25 15.85 3.5625 15.85 7.875C15.85 11.3438 13.725 14.3125 10.6 15.3438C10.1937 15.4375 10.0375 15.1875 10.0375 14.9688C10.0375 14.7188 10.0687 13.4062 10.0687 12.375C10.0687 11.625 9.81875 11.1562 9.5375 10.9062C11.2875 10.7188 13.1312 10.4688 13.1312 7.46875C13.1312 6.59375 12.8187 6.1875 12.3187 5.625C12.3812 5.40625 12.6625 4.59375 12.225 3.5C11.5687 3.28125 10.0687 4.34375 10.0687 4.34375C9.44375 4.15625 8.7875 4.09375 8.1 4.09375C7.44375 4.09375 6.7875 4.15625 6.1625 4.34375C6.1625 4.34375 4.63125 3.3125 4.00625 3.5C3.56875 4.59375 3.81875 5.40625 3.9125 5.625C3.4125 6.1875 3.1625 6.59375 3.1625 7.46875C3.1625 10.4688 4.94375 10.7188 6.69375 10.9062C6.44375 11.125 6.25625 11.4688 6.19375 11.9688C5.725 12.1875 4.6 12.5312 3.9125 11.3125C3.475 10.5625 2.69375 10.5 2.69375 10.5C1.94375 10.5 2.6625 11 2.6625 11C3.1625 11.2188 3.50625 12.125 3.50625 12.125C3.975 13.5312 6.1625 13.0625 6.1625 13.0625C6.1625 13.7188 6.1625 14.7812 6.1625 15C6.1625 15.1875 6.0375 15.4375 5.63125 15.375C2.50625 14.3125 0.35 11.3438 0.35 7.875C0.35 3.5625 3.6625 0.25 7.975 0.25ZM3.38125 11.0312C3.4125 11 3.475 11.0312 3.5375 11.0625C3.6 11.125 3.6 11.2188 3.56875 11.25C3.50625 11.2812 3.44375 11.25 3.38125 11.2188C3.35 11.1562 3.31875 11.0625 3.38125 11.0312ZM3.0375 10.7812C3.06875 10.75 3.1 10.75 3.1625 10.7812C3.225 10.8125 3.25625 10.8438 3.25625 10.875C3.225 10.9375 3.1625 10.9375 3.1 10.9062C3.0375 10.875 3.00625 10.8438 3.0375 10.7812ZM4.0375 11.9062C4.1 11.8438 4.19375 11.875 4.25625 11.9375C4.31875 12 4.31875 12.0938 4.2875 12.125C4.25625 12.1875 4.1625 12.1562 4.1 12.0938C4.00625 12.0312 4.00625 11.9375 4.0375 11.9062ZM3.69375 11.4375C3.75625 11.4062 3.81875 11.4375 3.88125 11.5C3.9125 11.5625 3.9125 11.6562 3.88125 11.6875C3.81875 11.7188 3.75625 11.6875 3.69375 11.625C3.63125 11.5625 3.63125 11.4688 3.69375 11.4375Z" fill="#BFECD9"/>
</svg>
