<svg width="24" height="24" viewBox="0 0 15 14" fill="none" xmlns="http://www.w3.org/2000/svg">
<path d="M3.56484 14H0.658594V4.65625H3.56484V14ZM2.09609 3.40625C1.18984 3.40625 0.439844 2.625 0.439844 1.6875C0.439844 0.78125 1.18984 0.03125 2.09609 0.03125C3.03359 0.03125 3.78359 0.78125 3.78359 1.6875C3.78359 2.625 3.03359 3.40625 2.09609 3.40625ZM14.4086 14H11.5336V9.46875C11.5336 8.375 11.5023 7 10.0023 7C8.50234 7 8.28359 8.15625 8.28359 9.375V14H5.37734V4.65625H8.15859V5.9375H8.18984C8.59609 5.21875 9.53359 4.4375 10.9398 4.4375C13.8773 4.4375 14.4398 6.375 14.4398 8.875V14H14.4086Z" fill="#BFECD9"/>
</svg>
