<svg width="1428" height="934" viewBox="0 0 1428 934" fill="none" xmlns="http://www.w3.org/2000/svg">
<mask id="mask0_116_522" style="mask-type:luminance" maskUnits="userSpaceOnUse" x="0" y="0" width="1428" height="934">
<path d="M1427.5 0H0.5V934H1427.5V0Z" fill="white"/>
</mask>
<g mask="url(#mask0_116_522)">
<path d="M1427.5 0H0.5V934H1427.5V0Z" fill="#F3F3F3"/>
<path d="M70.6999 234C70.6999 222.95 8.93993 252.23 0.499928 224.11C-26.1601 135.23 -56.7401 54.8201 0.499928 5.91278e-05C60.2599 -57.2399 117.5 5.91278e-05 234.5 5.91278e-05C351.5 5.91278e-05 351.5 5.91278e-05 468.5 5.91278e-05C585.5 5.91278e-05 585.5 5.91278e-05 702.5 5.91278e-05C819.5 5.91278e-05 819.5 5.91278e-05 936.5 5.91278e-05C1053.5 5.91278e-05 1053.5 5.91278e-05 1170.5 5.91278e-05C1287.5 5.91278e-05 1287.5 5.91278e-05 1404.5 5.91278e-05C1496.87 5.91278e-05 1548.61 -51.6199 1589.24 5.91278e-05C1640.71 65.3801 1572.02 120.98 1588.71 234C1596.65 287.77 1627.22 280.57 1638.5 333.57C1652.12 397.57 1638.5 400.78 1638.5 468C1638.5 538.2 1682.16 576.7 1638.5 608.4C1565.16 661.65 1510.52 603.26 1404.5 637.89C1367.23 650.06 1351.92 668.71 1351.92 702C1351.92 739.77 1363.52 765.99 1404.5 780C1506.81 814.97 1564.42 750.56 1638.5 799.95C1681.42 828.56 1681.52 910.99 1638.5 936C1564.52 979.02 1521.5 936 1404.5 936C1308.99 936 1305.92 946.67 1213.48 936C1188.92 933.17 1191.93 909 1170.5 909C1149.38 909 1152.58 933.21 1128.38 936C1035.58 946.71 1032.44 936 936.5 936C819.5 936 819.5 936 702.5 936C633.67 936 617.7 966.83 564.85 936C500.7 898.58 511.32 799.5 468.5 799.5C429.49 799.5 457.02 903.42 401.18 936C340.02 971.67 317.84 936 234.5 936C153.38 936 130.77 972.37 72.2599 936C13.7699 899.64 23.7099 866.23 0.499928 790.54C-12.1701 749.23 0.499928 746.27 0.499928 702C0.499928 585 0.499928 585 0.499928 468C0.499928 369.48 -24.5301 354.37 0.499928 270.95C10.5699 237.37 70.6999 246.37 70.6999 234Z" stroke="#77786A" stroke-opacity="0.25" stroke-width="2"/>
<path d="M936.5 152.1C899.69 152.1 870.09 186.45 870.09 234C870.09 339.08 898.2 349.53 936.5 457.36C939.76 466.53 943.56 466.03 953.21 468C1060.56 489.9 1066.68 505.1 1170.5 505.1C1198.37 505.1 1216.59 490.09 1216.59 468C1216.59 436.97 1196.28 431.37 1170.5 398.86C1103.49 314.37 1105.1 312.14 1031 234C988.1 188.76 980.15 152.1 936.5 152.1Z" stroke="#77786A" stroke-opacity="0.25" stroke-width="2"/>
<path d="M702.5 437.31C681.5 437.31 670.22 447.46 670.22 468C670.22 547.89 678.78 555.81 702.5 638.18C712.47 672.81 707.51 684.97 737.6 702C824.51 751.18 848.52 770.59 936.5 770.59C971.1 770.59 982.76 740.83 982.76 702C982.76 596.03 968.51 584.66 936.5 481C932.38 467.66 924.71 470.65 910.5 468C807.71 448.81 801.64 437.31 702.5 437.31Z" stroke="#77786A" stroke-opacity="0.25" stroke-width="2"/>
<path d="M234.5 42.5501C150.36 16.9301 75.6098 155.38 0.499783 141.72C-41.3902 134.1 -43.6302 26.7301 0.499783 5.34058e-05C73.3698 -44.1299 117.5 5.34058e-05 234.5 5.34058e-05C351.5 5.34058e-05 351.5 5.34058e-05 468.5 5.34058e-05C585.5 5.34058e-05 585.5 5.34058e-05 702.5 5.34058e-05C819.5 5.34058e-05 819.5 5.34058e-05 936.5 5.34058e-05C1053.5 5.34058e-05 1053.5 5.34058e-05 1170.5 5.34058e-05C1287.5 5.34058e-05 1287.5 5.34058e-05 1404.5 5.34058e-05C1419.89 5.34058e-05 1428.63 -12.7799 1435.29 5.34058e-05C1489.62 104.22 1475.61 119.34 1526.48 234C1577.22 348.36 1584.63 345.51 1638.5 458.04C1640.64 462.51 1638.5 463.02 1638.5 468C1638.5 473.2 1643.23 476.59 1638.5 478.4C1526.23 521.46 1512.59 561.12 1404.5 557.75C1345.96 555.92 1346.79 519.84 1305.23 468C1229.79 373.92 1239.49 365.73 1170.5 265.91C1158.63 248.73 1158.99 247.99 1143.5 234C1041.99 142.33 1032.11 54.6001 936.5 54.6001C855.88 54.6001 864.04 144.52 791.04 234C747.04 287.93 750.28 290.97 702.5 341.41C639.44 407.97 626.08 396.8 569.36 468C509.08 543.66 544.36 590.97 468.5 635.14C376.93 688.47 318.06 706.98 234.5 663C159.27 623.41 150.93 552.14 150.93 468C150.93 429.2 209.07 456.12 234.5 417.13C285.38 339.12 303.55 325.81 303.55 234C303.55 138.52 301.88 63.0701 234.5 42.5501Z" stroke="#77786A" stroke-opacity="0.25" stroke-width="2"/>
<path d="M1050.78 702C1050.78 638.47 1111.18 576.44 1170.5 576.44C1228.88 576.44 1286.19 638.5 1286.19 702C1286.19 767.28 1228.91 834 1170.5 834C1111.2 834 1050.78 767.25 1050.78 702Z" stroke="#77786A" stroke-opacity="0.25" stroke-width="2"/>
<path d="M150.26 936C150.26 852.41 191.87 710.36 234.5 710.36C277.27 710.36 321.05 852.93 321.05 936C321.05 965.75 277.77 936 234.5 936C192.38 936 150.26 965.23 150.26 936Z" stroke="#77786A" stroke-opacity="0.25" stroke-width="2"/>
<path d="M679.56 936C679.56 921.24 680.32 898.24 702.5 892.67C808.79 865.97 827.8 856.2 936.5 871.45C982.24 877.87 1011.38 917.63 1011.38 936C1011.38 949.91 973.94 936 936.5 936C819.5 936 819.5 936 702.5 936C691.03 936 679.56 942.91 679.56 936Z" stroke="#77786A" stroke-opacity="0.25" stroke-width="2"/>
<path d="M1332.87 936C1332.87 919.52 1362.15 877.5 1404.5 877.5C1514.96 877.5 1638.5 921.15 1638.5 936C1638.5 950.4 1521.5 936 1404.5 936C1368.68 936 1332.87 948.77 1332.87 936Z" stroke="#77786A" stroke-opacity="0.25" stroke-width="2"/>
<path d="M108.5 7.34329e-05C108.5 15.8101 36.9501 59.3201 0.500067 59.3201C-17.0499 59.3201 -18.6399 10.5201 0.500067 7.34329e-05C35.3601 -19.1399 108.5 -13.8499 108.5 7.34329e-05Z" stroke="#77786A" stroke-opacity="0.25" stroke-width="2"/>
<path d="M399.45 234C377.51 119.22 354.03 84.7301 379.03 6.86646e-05C388.55 -32.2699 423.76 6.86646e-05 468.5 6.86646e-05C548.56 6.86646e-05 572.31 -37.5299 628.61 6.86646e-05C689.31 40.4701 673.85 75.6001 702.5 156C715.54 192.6 711.99 196.39 711.99 234C711.99 241.14 707.88 240.34 702.5 245.51C586.13 357.34 554.81 471.28 468.5 468C403.28 465.52 422.24 353.22 399.45 234Z" stroke="#77786A" stroke-opacity="0.25" stroke-width="2"/>
<path d="M1170.5 31.9101C1147.36 31.9101 1120.36 8.65006 1120.36 5.98431e-05C1120.36 -7.29994 1145.43 5.98431e-05 1170.5 5.98431e-05C1185.76 5.98431e-05 1201.02 -6.51994 1201.02 5.98431e-05C1201.02 9.43006 1187.69 31.9101 1170.5 31.9101Z" stroke="#77786A" stroke-opacity="0.25" stroke-width="2"/>
<path d="M1273.9 234C1276.08 159.89 1350.78 106.36 1404.5 106.36C1445.95 106.36 1459.2 166.44 1464.24 234C1472.7 347.26 1458.14 359.37 1431.5 468C1428.27 481.18 1417.04 477.62 1404.5 477.62C1398.22 477.62 1397.24 474.3 1393.86 468C1331.94 352.49 1270.76 340.71 1273.9 234Z" stroke="#77786A" stroke-opacity="0.25" stroke-width="2"/>
<path d="M1118.8 702C1118.8 674.57 1144.88 647.78 1170.5 647.78C1195.71 647.78 1220.46 674.58 1220.46 702C1220.46 730.19 1195.72 759 1170.5 759C1144.89 759 1118.8 730.18 1118.8 702Z" stroke="#77786A" stroke-opacity="0.25" stroke-width="2"/>
<path d="M228.26 936C228.26 929.81 231.34 919.29 234.5 919.29C237.67 919.29 240.91 929.85 240.91 936C240.91 938.2 237.7 936 234.5 936C231.38 936 228.26 938.17 228.26 936Z" stroke="#77786A" stroke-opacity="0.25" stroke-width="2"/>
</g>
</svg>
